<?xml version="1.0"?>
<svg fill="#003366" xmlns="http://www.w3.org/2000/svg" viewBox="0 0 48 48" width="512" height="512"><g id="Line"><path d="M22,27H38a1,1,0,0,0,1-1V18h2a1,1,0,0,0,1-1V14a1,1,0,0,0-.41-.81l-11-8a1,1,0,0,0-1.18,0l-11,8A1,1,0,0,0,18,14v3a1,1,0,0,0,1,1h2v8A1,1,0,0,0,22,27Zm6-2V20h4v5Zm6,0V19a1,1,0,0,0-1-1H27a1,1,0,0,0-1,1v6H23V17.5l7-5.25,7,5.25V25ZM20,16V14.51L30,7.24l10,7.27V16H38.33L30.6,10.2a1,1,0,0,0-1.2,0L21.67,16Z"/><path d="M3,11H9.54a1,1,0,0,1,1,.7l5.67,17.82A5.27,5.27,0,0,0,16.93,31a3,3,0,0,0-1.2,5.7A4,4,0,0,0,15,39a4,4,0,0,0,8,0,3.91,3.91,0,0,0-.56-2H34.56A3.91,3.91,0,0,0,34,39a4,4,0,0,0,8,0,3.91,3.91,0,0,0-.56-2H42a1,1,0,0,0,0-2H17a1,1,0,0,1,0-2H39.36A5,5,0,0,0,44,30l2-4.58a1,1,0,0,0-1.84-.78l-2,4.57A3,3,0,0,1,39.36,31H20.92a3,3,0,0,1-2.85-2.09L12.4,11.09A3,3,0,0,0,9.54,9H3a1,1,0,0,0,0,2ZM21,39a2,2,0,1,1-2-2A2,2,0,0,1,21,39Zm19,0a2,2,0,1,1-2-2A2,2,0,0,1,40,39Z"/></g></svg>
