<svg id="visual" viewBox="0 0 1920 128" width="1920" height="128" xmlns="http://www.w3.org/2000/svg" xmlns:xlink="http://www.w3.org/1999/xlink" version="1.1"><path d="M0 25L29.2 25C58.3 25 116.7 25 174.8 23.3C233 21.7 291 18.3 349.2 16.5C407.3 14.7 465.7 14.3 523.8 15.3C582 16.3 640 18.7 698.2 18.7C756.3 18.7 814.7 16.3 872.8 15C931 13.7 989 13.3 1047.2 13.7C1105.3 14 1163.7 15 1221.8 18.8C1280 22.7 1338 29.3 1396.2 29.3C1454.3 29.3 1512.7 22.7 1570.8 21.3C1629 20 1687 24 1745.2 23.8C1803.3 23.7 1861.7 19.3 1890.8 17.2L1920 15L1920 0L1890.8 0C1861.7 0 1803.3 0 1745.2 0C1687 0 1629 0 1570.8 0C1512.7 0 1454.3 0 1396.2 0C1338 0 1280 0 1221.8 0C1163.7 0 1105.3 0 1047.2 0C989 0 931 0 872.8 0C814.7 0 756.3 0 698.2 0C640 0 582 0 523.8 0C465.7 0 407.3 0 349.2 0C291 0 233 0 174.8 0C116.7 0 58.3 0 29.2 0L0 0Z" fill="#1f5696"></path><path d="M0 46L29.2 44.8C58.3 43.7 116.7 41.3 174.8 39.8C233 38.3 291 37.7 349.2 35.3C407.3 33 465.7 29 523.8 30C582 31 640 37 698.2 37.7C756.3 38.3 814.7 33.7 872.8 29.8C931 26 989 23 1047.2 23.2C1105.3 23.3 1163.7 26.7 1221.8 31C1280 35.3 1338 40.7 1396.2 41.8C1454.3 43 1512.7 40 1570.8 40.7C1629 41.3 1687 45.7 1745.2 45.7C1803.3 45.7 1861.7 41.3 1890.8 39.2L1920 37L1920 13L1890.8 15.2C1861.7 17.3 1803.3 21.7 1745.2 21.8C1687 22 1629 18 1570.8 19.3C1512.7 20.7 1454.3 27.3 1396.2 27.3C1338 27.3 1280 20.7 1221.8 16.8C1163.7 13 1105.3 12 1047.2 11.7C989 11.3 931 11.7 872.8 13C814.7 14.3 756.3 16.7 698.2 16.7C640 16.7 582 14.3 523.8 13.3C465.7 12.3 407.3 12.7 349.2 14.5C291 16.3 233 19.7 174.8 21.3C116.7 23 58.3 23 29.2 23L0 23Z" fill="#11447e"></path><path d="M0 92L29.2 90.7C58.3 89.3 116.7 86.7 174.8 86.7C233 86.7 291 89.3 349.2 89.2C407.3 89 465.7 86 523.8 81.3C582 76.7 640 70.3 698.2 66C756.3 61.7 814.7 59.3 872.8 62.3C931 65.3 989 73.7 1047.2 73.5C1105.3 73.3 1163.7 64.7 1221.8 61.8C1280 59 1338 62 1396.2 68.8C1454.3 75.7 1512.7 86.3 1570.8 92.2C1629 98 1687 99 1745.2 93.2C1803.3 87.3 1861.7 74.7 1890.8 68.3L1920 62L1920 35L1890.8 37.2C1861.7 39.3 1803.3 43.7 1745.2 43.7C1687 43.7 1629 39.3 1570.8 38.7C1512.7 38 1454.3 41 1396.2 39.8C1338 38.7 1280 33.3 1221.8 29C1163.7 24.7 1105.3 21.3 1047.2 21.2C989 21 931 24 872.8 27.8C814.7 31.7 756.3 36.3 698.2 35.7C640 35 582 29 523.8 28C465.7 27 407.3 31 349.2 33.3C291 35.7 233 36.3 174.8 37.8C116.7 39.3 58.3 41.7 29.2 42.8L0 44Z" fill="#003366"></path><path d="M0 101L29.2 100.2C58.3 99.3 116.7 97.7 174.8 98.3C233 99 291 102 349.2 104.3C407.3 106.7 465.7 108.3 523.8 105.5C582 102.7 640 95.3 698.2 88.5C756.3 81.7 814.7 75.3 872.8 78.8C931 82.3 989 95.7 1047.2 98C1105.3 100.3 1163.7 91.7 1221.8 88C1280 84.3 1338 85.7 1396.2 89.7C1454.3 93.7 1512.7 100.3 1570.8 104.3C1629 108.3 1687 109.7 1745.2 104.3C1803.3 99 1861.7 87 1890.8 81L1920 75L1920 60L1890.8 66.3C1861.7 72.7 1803.3 85.3 1745.2 91.2C1687 97 1629 96 1570.8 90.2C1512.7 84.3 1454.3 73.7 1396.2 66.8C1338 60 1280 57 1221.8 59.8C1163.7 62.7 1105.3 71.3 1047.2 71.5C989 71.7 931 63.3 872.8 60.3C814.7 57.3 756.3 59.7 698.2 64C640 68.3 582 74.7 523.8 79.3C465.7 84 407.3 87 349.2 87.2C291 87.3 233 84.7 174.8 84.7C116.7 84.7 58.3 87.3 29.2 88.7L0 90Z" fill="#002d58"></path><path d="M0 129L29.2 129C58.3 129 116.7 129 174.8 129C233 129 291 129 349.2 129C407.3 129 465.7 129 523.8 129C582 129 640 129 698.2 129C756.3 129 814.7 129 872.8 129C931 129 989 129 1047.2 129C1105.3 129 1163.7 129 1221.8 129C1280 129 1338 129 1396.2 129C1454.3 129 1512.7 129 1570.8 129C1629 129 1687 129 1745.2 129C1803.3 129 1861.7 129 1890.8 129L1920 129L1920 73L1890.8 79C1861.7 85 1803.3 97 1745.2 102.3C1687 107.7 1629 106.3 1570.8 102.3C1512.7 98.3 1454.3 91.7 1396.2 87.7C1338 83.7 1280 82.3 1221.8 86C1163.7 89.7 1105.3 98.3 1047.2 96C989 93.7 931 80.3 872.8 76.8C814.7 73.3 756.3 79.7 698.2 86.5C640 93.3 582 100.7 523.8 103.5C465.7 106.3 407.3 104.7 349.2 102.3C291 100 233 97 174.8 96.3C116.7 95.7 58.3 97.3 29.2 98.2L0 99Z" fill="#00274b"></path></svg>